<?xml version="1.0" encoding="UTF-8" standalone="no"?>
<!-- Created with Inkscape (http://www.inkscape.org/) -->

<svg
   width="436.05441mm"
   height="89.820755mm"
   viewBox="0 0 436.05441 89.820755"
   version="1.1"
   id="svg1"
   inkscape:version="1.3 (0e150ed6c4, 2023-07-21)"
   sodipodi:docname="WebScript-Logo-Black.svg"
   xmlns:inkscape="http://www.inkscape.org/namespaces/inkscape"
   xmlns:sodipodi="http://sodipodi.sourceforge.net/DTD/sodipodi-0.dtd"
   xmlns="http://www.w3.org/2000/svg"
   xmlns:svg="http://www.w3.org/2000/svg">
  <sodipodi:namedview
     id="namedview1"
     pagecolor="#505050"
     bordercolor="#eeeeee"
     borderopacity="1"
     inkscape:showpageshadow="0"
     inkscape:pageopacity="0"
     inkscape:pagecheckerboard="0"
     inkscape:deskcolor="#505050"
     inkscape:document-units="mm"
     inkscape:zoom="0.5701459"
     inkscape:cx="978.69685"
     inkscape:cy="280.62992"
     inkscape:window-width="1600"
     inkscape:window-height="829"
     inkscape:window-x="-8"
     inkscape:window-y="-8"
     inkscape:window-maximized="1"
     inkscape:current-layer="layer1" />
  <defs
     id="defs1" />
  <g
     inkscape:label="Layer 1"
     inkscape:groupmode="layer"
     id="layer1"
     transform="translate(479.84151,-47.113306)">
    <path
       style="font-size:95.25px;line-height:0.9;font-family:'Product Serif';-inkscape-font-specification:'Product Serif';text-align:center;text-anchor:middle;fill:#000000;stroke-width:0.79375"
       d="m -444.40851,100.16756 0.66675,0.381 q 0.28575,-0.0952 1.23825,-1.809754 1.04775,-1.80975 2.4765,-4.3815 1.42875,-2.667 2.95275,-5.715 1.524,-3.048 2.8575,-5.81025 1.3335,-2.76225 2.19075,-4.7625 0.85725,-2.00025 0.85725,-2.4765 0,-0.66675 -0.85725,-3.048 -0.762,-2.4765 -1.905,-5.334 -1.04775,-2.8575 -2.0955,-5.42925 -0.9525,-2.57175 -1.3335,-3.6195 -0.762,-1.905 -2.0955,-2.667 -1.3335,-0.85725 -2.57175,-1.23825 -1.23825,-0.47625 -2.19075,-0.762 -0.85725,-0.381 -0.85725,-1.3335 0,-1.04775 0.66675,-1.3335 0.762,-0.28575 1.61925,-0.28575 2.76225,0 5.5245,0.28575 2.76225,0.28575 5.5245,0.28575 2.76225,0 5.42925,-0.28575 2.667,-0.28575 5.42925,-0.28575 0.762,0 1.3335,0.28575 0.66675,0.28575 0.66675,1.143 0,0.85725 -0.85725,1.3335 -0.762,0.381 -1.7145,0.85725 -0.85725,0.47625 -1.7145,1.23825 -0.762,0.66675 -0.762,2.0955 0,1.61925 0.66675,3.429 l 13.04925,35.814 q 0.28575,0.762 0.47625,1.23825 0.28575,0.47625 0.9525,1.04775 0.5715,-0.09525 0.85725,-1.04775 0.28575,-0.9525 0.47625,-1.42875 l 8.85825,-24.1935 q 0.9525,-2.667 1.905,-5.715 0.9525,-3.048 0.9525,-5.81025 0,-3.14325 -1.42875,-4.3815 -1.3335,-1.3335 -2.95275,-1.905 -1.61925,-0.5715 -3.048,-0.85725 -1.3335,-0.381 -1.3335,-1.7145 0,-1.04775 0.9525,-1.23825 1.04775,-0.1905 1.80975,-0.1905 1.7145,0 3.429,0.28575 1.80975,0.28575 3.6195,0.28575 2.57175,0 5.1435,-0.28575 2.57175,-0.28575 5.1435,-0.28575 1.524,0 1.524,1.61925 0,0.28575 -0.1905,0.66675 -0.0952,0.381 -0.28575,0.5715 -0.47625,0.47625 -1.143,1.04775 -0.5715,0.47625 -1.04775,0.9525 -1.905,1.80975 -3.048,3.90525 -1.143,2.00025 -2.0955,4.47675 l -19.71675,52.101754 q -0.381,0.85725 -1.04775,1.80975 -0.5715,0.9525 -1.61925,0.9525 -1.143,0 -1.61925,-1.04775 -0.47625,-0.9525 -0.85725,-1.80975 -0.28575,-0.762 -1.3335,-3.52425 -1.04775,-2.76225 -2.4765,-6.38175 -1.3335,-3.6195 -2.95275,-7.715254 -1.524,-4.09575 -2.95275,-7.52475 -1.3335,-3.429 -2.38125,-5.715 -0.9525,-2.286 -1.143,-2.4765 h -0.381 l -0.381,0.28575 q -4.0005,7.90575 -7.90575,15.8115 -3.81,7.810504 -7.8105,15.716254 -0.1905,0.47625 -0.5715,1.23825 -0.381,0.66675 -0.85725,1.42875 -0.381,0.66675 -0.9525,1.143 -0.47625,0.5715 -1.04775,0.5715 -1.23825,0 -2.00025,-1.42875 -0.66675,-1.42875 -1.04775,-2.38125 l -21.05025,-56.102254 q -0.762,-2.00025 -2.00025,-3.048 -1.143,-1.04775 -2.286,-1.61925 -1.143,-0.5715 -2.00025,-0.9525 -0.762,-0.381 -0.762,-1.143 0,-0.85725 0.5715,-1.143 0.66675,-0.28575 1.42875,-0.28575 2.95275,0 5.81025,0.28575 2.8575,0.28575 5.81025,0.28575 2.667,0 5.23875,-0.28575 2.57175,-0.28575 5.23875,-0.28575 1.905,0 1.905,1.905 0,1.04775 -0.85725,1.524 -0.85725,0.381 -1.905,0.762 -1.04775,0.28575 -1.905,0.9525 -0.85725,0.66675 -0.85725,2.0955 0,0.66675 0.1905,1.7145 0.28575,1.04775 0.5715,2.0955 0.381,1.04775 0.66675,2.0955 0.381,1.04775 0.66675,1.7145 l 12.192,33.3375 q 0.1905,0.381 0.28575,0.762 0.1905,0.28575 0.381,0.666754 z m 68.77043,-3.143254 q 0,2.76225 1.04775,5.524504 1.04775,2.76225 2.8575,5.04825 1.905,2.19075 4.3815,3.6195 2.57175,1.42875 5.42925,1.42875 2.57175,0 4.66725,-0.762 2.19075,-0.85725 3.81,-1.80975 1.61925,-1.04775 2.667,-1.905 1.04775,-0.85725 1.61925,-0.85725 0.47625,0 0.9525,0.47625 0.47625,0.381 0.47625,0.85725 0,0.66675 -0.47625,1.42875 -0.47625,0.66675 -1.143,1.3335 -0.5715,0.66675 -1.3335,1.23825 -0.66675,0.47625 -1.143,0.85725 -3.429,2.4765 -7.14375,3.81 -3.71475,1.3335 -8.001,1.3335 -4.3815,0 -8.001,-1.42875 -3.52425,-1.524 -6.096,-4.09575 -2.57175,-2.667 -4.0005,-6.2865 -1.42875,-3.71475 -1.42875,-8.001004 0,-4.191 1.42875,-8.1915 1.42875,-4.09575 4.0005,-7.239 2.57175,-3.2385 6.19125,-5.1435 3.71475,-2.00025 8.28675,-2.00025 3.14325,0 6.477,1.23825 3.33375,1.23825 6.096,3.429 2.76225,2.0955 4.47675,5.04825 1.80975,2.95275 1.80975,6.38175 0,0.762 -0.47625,1.23825 -0.381,0.47625 -1.04775,0.762 -0.5715,0.1905 -1.3335,0.28575 -0.66675,0.09525 -1.23825,0.09525 h -21.9075 q -1.04775,0 -1.524,0.66675 -0.381,0.66675 -0.381,1.61925 z m 14.57325,-5.9055 q 1.23825,0 1.80975,-0.381 0.66675,-0.381 0.66675,-1.7145 0,-1.7145 -0.66675,-3.33375 -0.66675,-1.61925 -1.905,-2.76225 -1.143,-1.23825 -2.76225,-1.905 -1.524,-0.762 -3.33375,-0.762 -1.905,0 -3.52425,0.762 -1.524,0.762 -2.667,2.00025 -1.04775,1.23825 -1.7145,2.95275 -0.5715,1.61925 -0.5715,3.429 0,1.04775 0.381,1.42875 0.47625,0.28575 1.42875,0.28575 z m 36.57597,-9.04875 q 2.76225,-2.4765 6.096,-4.09575 3.429,-1.7145 7.239,-1.7145 3.81,0 6.76275,1.524 2.95275,1.524 4.953,4.09575 2.0955,2.57175 3.14325,5.9055 1.04775,3.2385 1.04775,6.76275 0,4.85775 -1.42875,9.239254 -1.42875,4.3815 -4.28625,7.71525 -2.76225,3.2385 -6.76275,5.23875 -4.0005,1.905 -9.144,1.905 -3.90525,0 -6.76275,-1.04775 -2.76225,-1.04775 -6.00075,-3.048 -0.381,0.381 -1.04775,1.04775 -0.66675,0.66675 -1.42875,1.3335 -0.66675,0.66675 -1.42875,1.143 -0.66675,0.5715 -1.143,0.5715 -1.23825,0 -1.23825,-1.3335 0,-1.42875 0.28575,-2.8575 0.28575,-1.42875 0.28575,-2.8575 l -0.0953,-52.387504 q 0,-1.80975 -1.04775,-2.4765 -0.9525,-0.762 -2.19075,-1.04775 -1.143,-0.28575 -2.19075,-0.47625 -0.9525,-0.28575 -0.9525,-1.3335 0,-0.66675 0.9525,-1.143 1.04775,-0.5715 2.38125,-0.85725 1.3335,-0.381 2.57175,-0.5715 1.23825,-0.28575 1.80975,-0.47625 0.5715,-0.09525 1.80975,-0.66675 1.3335,-0.66675 2.667,-1.3335 1.42875,-0.66675 2.4765,-1.143 1.143,-0.5715 1.23825,-0.5715 0.9525,0 1.143,1.23825 0.28575,1.23825 0.28575,1.905 z m 9.906,32.575504 q 2.76225,0 4.7625,-1.04775 2.00025,-1.04775 3.2385,-2.8575 1.23825,-1.80975 1.80975,-4.09575 0.5715,-2.286 0.5715,-4.7625 0,-2.952754 -0.762,-6.286504 -0.66675,-3.33375 -2.286,-6.096 -1.524,-2.76225 -4.09575,-4.572 -2.4765,-1.905 -6.00075,-1.905 -3.33375,0 -5.23875,1.80975 -1.905,1.80975 -1.905,5.23875 0,4.09575 0,8.1915 0,4.095754 0.0952,8.191504 0,1.905 0.85725,3.429 0.9525,1.524 2.286,2.57175 1.42875,1.04775 3.14325,1.61925 1.80975,0.5715 3.52425,0.5715 z m 24.00302,-19.050004 q 0,-0.762 0.47625,-1.3335 0.47625,-0.5715 1.3335,-0.5715 0.9525,0 1.80975,1.524 0.85725,1.42875 1.905,3.71475 1.04775,2.286004 2.38125,4.857754 1.42875,2.57175 3.52425,4.85775 2.0955,2.286 4.953,3.81 2.95275,1.42875 7.0485,1.42875 2.57175,0 4.953,-0.85725 2.38125,-0.85725 4.191,-2.38125 1.80975,-1.61925 2.8575,-3.81 1.143,-2.19075 1.143,-4.953 0,-4.191004 -2.57175,-6.667504 -2.57175,-2.4765 -6.477,-4.191 -3.81,-1.80975 -8.28675,-3.33375 -4.47675,-1.61925 -8.382,-3.90525 -3.81,-2.286 -6.38175,-5.81025 -2.57175,-3.52425 -2.57175,-9.3345 0,-4.28625 1.61925,-7.71525 1.61925,-3.52425 4.28625,-5.9055 2.76225,-2.4765 6.38175,-3.81 3.71475,-1.3335 7.90575,-1.3335 2.00025,0 4.191,0.66675 2.19075,0.5715 4.191,1.3335 2.00025,0.66675 3.6195,1.3335 1.7145,0.5715 2.76225,0.5715 1.61925,0 2.667,-0.66675 1.143,-0.66675 2.19075,-0.66675 1.04775,0 1.23825,1.04775 0.28575,0.9525 0.28575,1.7145 0,0.85725 -0.0952,1.7145 -0.0952,0.85725 -0.0952,1.61925 0,3.048 0.5715,5.9055 0.66675,2.8575 0.66675,5.9055 0,0.762 -0.381,1.42875 -0.28575,0.66675 -1.23825,0.66675 -1.04775,0 -1.7145,-0.762 -0.5715,-0.762 -0.85725,-1.61925 -0.1905,-0.5715 -0.381,-1.143 -0.1905,-0.66675 -0.381,-1.23825 -0.9525,-2.8575 -2.667,-5.23875 -1.7145,-2.38125 -4.0005,-4.09575 -2.286,-1.80975 -5.04825,-2.76225 -2.76225,-0.9525 -5.81025,-0.9525 -2.0955,0 -4.09575,0.5715 -2.00025,0.5715 -3.52425,1.7145 -1.524,1.143 -2.4765,2.95275 -0.9525,1.7145 -0.9525,4.0005 0,3.6195 2.57175,5.81025 2.57175,2.19075 6.38175,3.90525 3.90525,1.61925 8.382,3.2385 4.47675,1.61925 8.28675,4.191 3.90525,2.4765 6.477,6.38175 2.57175,3.90525 2.57175,10.19175 0,4.476754 -1.61925,8.382004 -1.61925,3.81 -4.47675,6.6675 -2.8575,2.76225 -6.76275,4.3815 -3.81,1.61925 -8.28675,1.61925 -3.71475,0 -7.14375,-0.9525 -3.33375,-0.9525 -6.858,-2.00025 -1.42875,-0.381 -2.57175,-0.47625 -1.04775,-0.1905 -1.905,-0.47625 -0.85725,-0.381 -1.524,-1.04775 -0.5715,-0.762 -1.04775,-2.4765 -0.47625,-1.7145 -1.04775,-3.71475 -0.5715,-2.00025 -1.04775,-4.0005 -0.47625,-2.0955 -0.85725,-4.095754 -0.28575,-2.0955 -0.28575,-3.81 z m 52.29219,3.90525 q 0,-5.23875 2.00025,-9.525 2.0955,-4.28625 5.5245,-7.33425 3.429,-3.048 7.90575,-4.66725 4.572,-1.7145 9.62025,-1.7145 1.524,0 3.52425,0.47625 2.0955,0.381 3.90525,1.3335 1.80975,0.85725 3.048,2.286 1.3335,1.42875 1.3335,3.33375 0,0.5715 -0.9525,1.61925 -0.9525,0.9525 -2.19075,1.905 -1.143,0.85725 -2.38125,1.524 -1.23825,0.66675 -1.80975,0.66675 -0.762,0 -1.3335,-1.42875 -0.5715,-1.42875 -1.42875,-3.14325 -0.85725,-1.7145 -2.38125,-3.14325 -1.42875,-1.42875 -4.09575,-1.42875 -2.4765,0 -4.28625,1.143 -1.7145,1.143 -2.8575,2.95275 -1.143,1.7145 -1.7145,3.90525 -0.5715,2.19075 -0.5715,4.28625 0,3.2385 0.66675,6.858 0.762,3.524254 2.38125,6.477004 1.7145,2.95275 4.3815,4.85775 2.76225,1.905 6.6675,1.905 2.19075,0 4.28625,-0.762 2.19075,-0.85725 3.90525,-1.80975 1.80975,-1.04775 3.048,-1.905 1.23825,-0.85725 1.7145,-0.85725 1.143,0 1.143,1.23825 0,0.5715 -0.47625,1.23825 -0.381,0.5715 -0.9525,1.23825 -0.5715,0.5715 -1.23825,1.143 -0.5715,0.47625 -0.9525,0.762 -3.429,2.76225 -7.62,4.28625 -4.191,1.42875 -8.5725,1.42875 -4.28625,0 -7.8105,-1.3335 -3.52425,-1.42875 -6.096,-3.90525 -2.4765,-2.57175 -3.90525,-6.096 -1.42875,-3.52425 -1.42875,-7.810504 z m 72.10432,-23.241 q 0.9525,0 2.286,0.66675 1.42875,0.66675 2.667,1.7145 1.3335,0.9525 2.286,2.0955 0.9525,1.143 0.9525,2.0955 0,0.66675 -0.5715,2.00025 -0.47625,1.23825 -1.3335,2.57175 -0.762,1.23825 -1.61925,2.19075 -0.85725,0.9525 -1.524,0.9525 -0.66675,0 -1.524,-0.5715 -0.85725,-0.5715 -1.80975,-1.23825 -0.9525,-0.762 -2.0955,-1.3335 -1.04775,-0.66675 -2.19075,-0.66675 -2.00025,0 -3.14325,1.143 -1.04775,1.04775 -1.61925,2.667 -0.47625,1.61925 -0.66675,3.429 -0.0953,1.80975 -0.0953,3.2385 0,1.80975 -0.0952,4.286254 0,2.4765 0.28575,4.953 0.381,2.38125 1.3335,4.3815 1.04775,2.00025 3.048,2.76225 0.47625,0.1905 1.23825,0.381 0.762,0.1905 1.42875,0.5715 0.762,0.28575 1.23825,0.762 0.5715,0.381 0.5715,1.04775 0,0.85725 -0.66675,1.23825 -0.5715,0.381 -1.3335,0.381 -2.4765,0 -4.85775,-0.28575 -2.286,-0.28575 -4.7625,-0.28575 -2.8575,0 -5.715,0.28575 -2.8575,0.28575 -5.715,0.28575 -0.762,0 -1.42875,-0.28575 -0.5715,-0.28575 -0.5715,-1.23825 0,-0.9525 0.66675,-1.23825 0.762,-0.381 1.61925,-0.85725 0.85725,-0.47625 1.61925,-1.3335 0.85725,-0.9525 1.143,-2.95275 0.0952,-0.762 0.0952,-1.42875 0,-0.66675 0,-1.42875 V 91.499806 q 0,-1.04775 0,-2.19075 0.0952,-1.143 -0.28575,-2.0955 -0.47625,-1.143 -1.524,-1.61925 -0.9525,-0.47625 -2.00025,-0.66675 -1.04775,-0.28575 -1.905,-0.5715 -0.762,-0.381 -0.762,-1.23825 0,-0.85725 0.66675,-1.143 0.66675,-0.28575 1.3335,-0.47625 3.429,-0.762 6.477,-1.905 3.14325,-1.23825 6.2865,-2.8575 0.28575,-0.1905 0.5715,-0.28575 0.381,-0.1905 0.762,-0.1905 0.381,0 0.66675,0.1905 0.381,0.1905 0.381,0.66675 v 7.62 q 0.762,-0.85725 2.00025,-2.286 1.23825,-1.524 2.667,-2.8575 1.42875,-1.3335 2.8575,-2.286 1.42875,-1.04775 2.667,-1.04775 z m 12.47776,7.14375 q 0,-1.04775 0.5715,-1.3335 0.5715,-0.381 1.42875,-0.5715 3.429,-0.9525 6.6675,-2.00025 3.2385,-1.04775 6.38175,-2.667 0.381,-0.1905 0.762,-0.381 0.381,-0.1905 0.85725,-0.1905 1.23825,0 1.23825,1.23825 0,2.4765 -0.28575,4.953 -0.1905,2.4765 -0.1905,4.953 v 16.668754 q 0,0.762 0,2.00025 0,1.23825 0.0952,2.57175 0.1905,1.23825 0.47625,2.38125 0.381,1.143 0.9525,1.7145 0.47625,0.47625 1.23825,0.85725 0.85725,0.28575 1.7145,0.5715 0.85725,0.28575 1.524,0.66675 0.66675,0.381 0.9525,0.9525 v 0.381 q 0,1.04775 -0.66675,1.42875 -0.5715,0.381 -1.524,0.381 -2.19075,0 -4.28625,-0.28575 -2.00025,-0.28575 -4.191,-0.28575 -2.8575,0 -5.715,0.28575 -2.76225,0.28575 -5.61975,0.28575 -0.762,0 -1.61925,-0.381 -0.762,-0.28575 -0.762,-1.23825 0,-0.762 0.66675,-1.143 0.66675,-0.47625 1.524,-0.762 0.9525,-0.381 1.80975,-0.762 0.9525,-0.381 1.524,-1.23825 0.381,-0.5715 0.5715,-1.61925 0.1905,-1.143 0.28575,-2.38125 0.0953,-1.3335 0.0953,-2.4765 0,-1.143 0,-1.905 0,-4.0005 0,-7.810504 0.0952,-3.90525 -0.0953,-7.90575 -0.0952,-1.80975 -1.143,-2.4765 -0.9525,-0.762 -2.19075,-1.04775 -1.143,-0.28575 -2.0955,-0.47625 -0.9525,-0.1905 -0.9525,-0.9525 z m 4.953,-21.81225 q 0,-0.66675 0.85725,-2.00025 0.85725,-1.3335 2.00025,-2.667 1.143,-1.3335 2.286,-2.38125 1.23825,-1.04775 1.905,-1.04775 0.5715,0 1.7145,1.04775 1.143,1.04775 2.286,2.38125 1.143,1.3335 2.00025,2.667 0.85725,1.23825 0.85725,1.80975 0,0.5715 -0.9525,1.905 -0.85725,1.23825 -2.0955,2.57175 -1.143,1.3335 -2.38125,2.38125 -1.23825,0.9525 -1.80975,0.9525 -0.66675,0 -1.80975,-0.9525 -1.04775,-0.9525 -2.19075,-2.19075 -1.04775,-1.3335 -1.905,-2.57175 -0.762,-1.23825 -0.762,-1.905 z m 55.245001,14.6685 q 4.0005,0 6.95325,1.61925 3.048,1.524 4.953,4.191 2.00025,2.57175 2.95275,6.00075 1.04775,3.429 1.04775,7.0485 0,4.66725 -1.524,8.953504 -1.42875,4.191 -4.191,7.4295 -2.667,3.2385 -6.57225,5.23875 -3.90525,1.905 -8.85825,1.905 -2.095501,0 -4.095751,-0.47625 -2.00025,-0.381 -4.0005,-0.85725 v 5.81025 q 0,1.23825 0,2.38125 0,1.23825 0.0952,2.38125 0.0953,2.0955 1.143,3.14325 1.143,1.04775 2.38125,1.61925 1.3335,0.66675 2.38125,1.04775 1.047751,0.47625 1.047751,1.3335 0,1.905 -2.095501,1.905 -2.19075,0 -4.28625,-0.28575 -2.00025,-0.28575 -4.191,-0.28575 -2.8575,0 -5.715,0.28575 -2.8575,0.28575 -5.715,0.28575 -0.762,0 -1.61925,-0.28575 -0.762,-0.28575 -0.762,-1.23825 0,-0.85725 0.66675,-1.3335 0.66675,-0.381 1.524,-0.762 0.9525,-0.28575 1.80975,-0.762 0.9525,-0.381 1.524,-1.143 0.381,-0.5715 0.5715,-1.7145 0.1905,-1.04775 0.28575,-2.286 0.0952,-1.23825 0.0952,-2.4765 0,-1.143 0,-1.80975 l -0.0952,-34.766254 q 0,-1.905 -1.04775,-2.4765 -0.9525,-0.66675 -2.19075,-0.85725 -1.143,-0.28575 -2.19075,-0.66675 -0.9525,-0.381 -0.9525,-1.7145 0,-0.9525 0.5715,-1.23825 0.5715,-0.28575 1.3335,-0.47625 3.33375,-0.762 6.38175,-1.524 3.14325,-0.85725 6.19125,-2.57175 0.381,-0.1905 0.66675,-0.381 0.381,-0.1905 0.85725,-0.1905 0.762,0 1.04775,0.85725 0.381,0.762 0.381,1.80975 0.0953,1.04775 0,2.0955 0,0.9525 0,1.42875 3.048,-2.8575 6.00075,-4.47675 2.952751,-1.7145 7.239001,-1.7145 z m -13.335001,29.908504 q 0,0.762 0,1.61925 0.0952,0.762 0.381,1.524 0.381,1.23825 1.524,2.19075 1.23825,0.9525 2.76225,1.7145 1.524,0.66675 3.048001,1.04775 1.61925,0.381 2.76225,0.381 2.8575,0 4.7625,-1.3335 1.905,-1.3335 3.048,-3.429 1.143,-2.0955 1.61925,-4.572 0.47625,-2.57175 0.47625,-4.953 0,-2.667004 -0.85725,-5.715004 -0.85725,-3.048 -2.57175,-5.61975 -1.61925,-2.57175 -4.0005,-4.28625 -2.38125,-1.7145 -5.42925,-1.7145 -1.333501,0 -2.667001,0.381 -1.3335,0.381 -2.38125,1.23825 -1.04775,0.762 -1.80975,1.905 -0.66675,1.143 -0.66675,2.57175 z M -68.1711,83.213056 q -0.47625,-0.66675 -1.61925,-0.47625 -1.04775,0.09525 -1.80975,0.09525 -0.762,0 -1.42875,-0.28575 -0.5715,-0.28575 -0.5715,-1.23825 0,-0.381 0.09525,-0.762 0.09525,-0.47625 0.381,-0.66675 3.6195,-2.95275 6.477,-5.61975 2.8575,-2.667 5.61975,-6.38175 0.381,-0.47625 1.04775,-1.3335 0.762,-0.85725 1.524,-0.85725 0.762,0 0.9525,0.85725 0.28575,0.762 0.28575,1.3335 v 7.4295 q 0,1.3335 0.381,1.80975 0.47625,0.47625 1.80975,0.47625 h 3.6195 q 2.0955,0 2.8575,-0.1905 0.85725,-0.1905 1.23825,-0.47625 0.381,-0.28575 0.5715,-0.5715 0.28575,-0.381 1.23825,-0.5715 l 0.5715,0.1905 0.381,0.66675 q 0,0.85725 -0.66675,2.38125 -0.66675,1.42875 -1.143,2.19075 -0.5715,1.143 -1.7145,1.42875 -1.143,0.28575 -2.286,0.28575 -1.143,0 -2.38125,-0.09525 -1.143,-0.1905 -2.286,-0.1905 -0.47625,0 -1.04775,0.09525 -0.47625,0 -0.9525,0.28575 0,0.1905 -0.09525,0.47625 -0.09525,0.28575 -0.09525,0.47625 v 21.812254 q 0,1.3335 0.09525,2.57175 0.1905,1.23825 0.66675,2.19075 0.5715,0.9525 1.524,1.524 0.9525,0.5715 2.57175,0.5715 2.0955,0 3.90525,-0.85725 1.80975,-0.9525 3.048,-0.9525 0.762,0 1.143,0.28575 0.47625,0.28575 0.47625,1.143 0,1.42875 -1.80975,2.57175 -1.80975,1.143 -4.191,2.00025 -2.286,0.85725 -4.66725,1.3335 -2.286,0.47625 -3.429,0.47625 -3.6195,0 -5.61975,-1.143 -2.00025,-1.143 -3.048,-3.048 -1.04775,-2.00025 -1.3335,-4.572 -0.1905,-2.667 -0.1905,-5.5245 z"
       id="text1"
       aria-label="WebScript" />
  </g>
</svg>
